HIERARCHY
ROOT Hips
{
 OFFSET 0.000000 0.000000 0.000000
 CHANNELS 6 Xposition Yposition Zposition Yrotation Xrotation Zrotation
 JOINT Chest
 {
  OFFSET 0.000000 9.585900 0.002600
  CHANNELS 3 Yrotation Xrotation Zrotation
  JOINT Chest2
  {
   OFFSET 0.000000 9.601200 -0.005300
   CHANNELS 3 Yrotation Xrotation Zrotation
   JOINT Chest3
   {
    OFFSET 0.000000 9.561800 0.000000
    CHANNELS 3 Yrotation Xrotation Zrotation
    JOINT Chest4
    {
     OFFSET 0.000000 9.552100 0.000000
     CHANNELS 3 Yrotation Xrotation Zrotation
     JOINT Neck
     {
      OFFSET 0.000000 14.453000 0.000000
      CHANNELS 3 Yrotation Xrotation Zrotation
      JOINT Head
      {
       OFFSET 0.000000 8.936500 -0.011300
       CHANNELS 3 Yrotation Xrotation Zrotation
       End Site
       {
        OFFSET 0.000000 17.073600 -0.006000
       }
      }
     }
     JOINT RightCollar
     {
      OFFSET -2.921100 9.558500 0.000000
      CHANNELS 3 Yrotation Xrotation Zrotation
      JOINT RightShoulder
      {
       OFFSET -13.519700 0.000000 0.000000
       CHANNELS 3 Yrotation Xrotation Zrotation
       JOINT RightElbow
       {
        OFFSET 0.000000 -29.696600 0.000000
        CHANNELS 3 Yrotation Xrotation Zrotation
        JOINT RightWrist
        {
         OFFSET 0.000000 -24.004700 0.000000
         CHANNELS 3 Yrotation Xrotation Zrotation
         End Site
         {
          OFFSET 0.000000 -17.728500 0.000000
         }
        }
       }
      }
     }
     JOINT LeftCollar
     {
      OFFSET 2.921100 9.558500 0.000000
      CHANNELS 3 Yrotation Xrotation Zrotation
      JOINT LeftShoulder
      {
       OFFSET 13.519700 0.000000 0.000000
       CHANNELS 3 Yrotation Xrotation Zrotation
       JOINT LeftElbow
       {
        OFFSET 0.000000 -29.696600 0.000000
        CHANNELS 3 Yrotation Xrotation Zrotation
        JOINT LeftWrist
        {
         OFFSET 0.000000 -24.004700 0.000000
         CHANNELS 3 Yrotation Xrotation Zrotation
         End Site
         {
          OFFSET 0.000000 -17.728500 0.000000
         }
        }
       }
      }
     }
    }
   }
  }
 }
 JOINT RightHip
 {
  OFFSET -7.771700 -0.012900 -0.001300
  CHANNELS 3 Yrotation Xrotation Zrotation
  JOINT RightKnee
  {
   OFFSET 0.000000 -40.869800 0.001200
   CHANNELS 3 Yrotation Xrotation Zrotation
   JOINT RightAnkle
   {
    OFFSET 0.000000 -39.717900 0.002100
    CHANNELS 3 Yrotation Xrotation Zrotation
    JOINT RightToe
    {
     OFFSET 0.000000 -4.965400 11.033500
     CHANNELS 3 Yrotation Xrotation Zrotation
     End Site
     {
      OFFSET 0.000000 -1.423100 5.872300
     }
    }
   }
  }
 }
 JOINT LeftHip
 {
  OFFSET 7.771700 -0.012900 -0.001300
  CHANNELS 3 Yrotation Xrotation Zrotation
  JOINT LeftKnee
  {
   OFFSET 0.000000 -40.869800 0.001200
   CHANNELS 3 Yrotation Xrotation Zrotation
   JOINT LeftAnkle
   {
    OFFSET 0.000000 -39.717900 0.002100
    CHANNELS 3 Yrotation Xrotation Zrotation
    JOINT LeftToe
    {
     OFFSET 0.000000 -4.965400 11.033500
     CHANNELS 3 Yrotation Xrotation Zrotation
     End Site
     {
      OFFSET 0.000000 -1.423100 5.872300
     }
    }
   }
  }
 }
}
MOTION
Frames: 11
Frame Time: 0.008333
0.000000 85.388000 0.000000 0.000000 -5.767877 0.000000 0.000000 11.653817 0.000000 0.000000 -5.885947 0.000000 0.000000 -0.000000 0.000000 0.000000 -0.000000 0.000000 0.000000 12.528835 0.000000 0.000000 0.711642 0.000000 0.000000 -0.000000 0.000000 0.000000 0.000000 -90.000000 0.000000 -2.309062 0.000000 0.000000 2.309062 0.000000 0.000000 -0.000000 0.000000 0.000000 -0.000000 90.000000 0.000000 -2.309062 0.000000 0.000000 2.309062 0.000000 0.000000 8.520406 0.000000 0.000000 1.905762 0.000000 -0.000000 -4.658285 0.000000 0.000000 -0.000000 0.000000 0.000000 8.520406 0.000000 0.000000 1.905762 0.000000 -0.000000 -4.658285 0.000000 0.000000 -0.000000 0.000000
-66.649756 43.739751 17.435357 174.488494 -25.133774 -0.432241 -0.311778 18.026042 3.416245 -0.074772 2.020458 0.496556 -0.175213 3.384244 0.753354 -0.441851 15.684637 3.472718 -0.757149 17.626916 -4.697658 0.268918 -7.072169 -4.831734 9.312806 1.119813 -2.293903 -8.405053 -9.901448 -1.601578 51.806801 -74.926395 -47.080012 -2.018435 -6.285091 -39.528941 -14.892155 -0.602282 -6.460322 14.762290 -6.506866 -0.608762 -89.849994 -72.349358 87.357613 9.363284 -1.832704 32.531593 -0.124912 -66.449239 9.593703 -143.213414 63.843947 -140.947715 -7.116476 -26.152517 7.184480 0.161208 -0.924797 0.083911 5.974258 -54.800711 -1.919204 173.719683 61.491707 174.103725 -1.173437 -38.940970 2.920777 0.124386 0.351941 0.025829
-66.653453 43.737985 17.441358 174.509567 -25.146690 -0.396180 -0.276945 17.987731 3.469925 -0.110778 2.045389 0.457283 -0.174551 3.385474 0.754991 -0.450582 15.689794 3.468411 -0.735444 17.611585 -4.671169 0.271810 -7.087011 -4.813827 9.320506 1.121817 -2.289931 -8.444424 -9.877298 -1.587455 51.934308 -74.911532 -47.212800 -2.041559 -6.300219 -39.528780 -14.860204 -0.601323 -6.441337 14.708908 -6.485211 -0.638560 -89.996470 -72.395840 87.494664 9.405580 -1.851829 32.458818 -0.031534 -66.446069 9.448829 -143.250799 63.843808 -140.978691 -7.080137 -26.140158 7.171721 0.118477 -0.898470 0.070864 6.004344 -54.790570 -2.018286 173.671459 61.504785 174.078362 -1.164361 -38.918399 2.883221 0.143536 0.352847 0.033651
-66.656478 43.738342 17.444241 174.532101 -25.190955 -0.356285 -0.296665 18.019973 3.442458 -0.101499 2.040911 0.467960 -0.174308 3.386632 0.756203 -0.474525 15.698482 3.449953 -0.698896 17.597233 -4.640573 0.291654 -7.107497 -4.790418 9.331688 1.120056 -2.284579 -8.459236 -9.857857 -1.558430 52.070375 -74.926884 -47.345595 -2.041459 -6.295965 -39.537244 -14.818079 -0.601978 -6.414395 14.755109 -6.475852 -0.571372 -90.108683 -72.519336 87.510373 9.467272 -1.880192 32.385968 0.062380 -66.406852 9.316696 -143.221711 63.829262 -140.944709 -7.095587 -26.120432 7.179919 0.141230 -0.892066 0.068110 6.040878 -54.741883 -2.104773 173.640045 61.517048 174.051882 -1.157071 -38.902334 2.870026 0.140875 0.350791 0.042804
-66.656115 43.738432 17.449516 174.549873 -25.230282 -0.329561 -0.305952 18.047752 3.431379 -0.110610 2.046394 0.458388 -0.149000 3.375625 0.783718 -0.468064 15.699886 3.460600 -0.742708 17.601945 -4.662797 0.341052 -7.140691 -4.754561 9.304253 1.128655 -2.303090 -8.470991 -9.845070 -1.530909 52.192240 -74.980521 -47.442252 -2.012015 -6.260795 -39.568490 -14.814686 -0.602819 -6.414477 14.786978 -6.466953 -0.540809 -90.302021 -72.656799 87.630660 9.475963 -1.875054 32.289554 0.123513 -66.371250 9.225309 -143.213403 63.823232 -140.933352 -7.086145 -26.114096 7.180834 0.143693 -0.878837 0.061980 6.065111 -54.702324 -2.162684 173.615686 61.527395 174.035546 -1.150579 -38.888618 2.856549 0.139808 0.351424 0.045462
-66.654044 43.736701 17.460412 174.563079 -25.240216 -0.308507 -0.295639 18.036433 3.447033 -0.109966 2.047813 0.459736 -0.145556 3.374452 0.793713 -0.465728 15.706467 3.462950 -0.734857 17.590102 -4.648069 0.341624 -7.156823 -4.740612 9.293530 1.130226 -2.306418 -8.489730 -9.826374 -1.520280 52.289016 -74.992202 -47.535926 -1.997079 -6.246780 -39.589895 -14.813174 -0.604724 -6.414216 14.809040 -6.457780 -0.531304 -90.491410 -72.776864 87.750214 9.473224 -1.870778 32.188799 0.162167 -66.370039 9.154036 -143.227104 63.828696 -140.933379 -7.082570 -26.098620 7.165242 0.160068 -0.870228 0.059456 6.089148 -54.697145 -2.212725 173.563387 61.543735 174.000766 -1.161785 -38.873011 2.837416 0.145346 0.362141 0.051790
-66.652342 43.736663 17.469175 174.570163 -25.268562 -0.276470 -0.269333 18.023927 3.488223 -0.129125 2.067981 0.428165 -0.151163 3.377339 0.795635 -0.432561 15.703213 3.500822 -0.702022 17.559814 -4.612445 0.272686 -7.126057 -4.778006 9.259851 1.141834 -2.328806 -8.490183 -9.810950 -1.517956 52.352843 -75.005348 -47.606157 -1.985088 -6.232834 -39.612671 -14.830599 -0.605257 -6.437407 14.835011 -6.452019 -0.527312 -90.671044 -72.885407 87.872846 9.470393 -1.865553 32.074030 0.211865 -66.347809 9.076367 -143.251053 63.837205 -140.958091 -7.071856 -26.091659 7.163951 0.157010 -0.861230 0.048741 6.123498 -54.669604 -2.263449 173.533923 61.557453 173.977867 -1.170030 -38.856289 2.827782 0.146280 0.364130 0.054970
-66.649132 43.737168 17.478361 174.575644 -25.298262 -0.248840 -0.274874 18.043565 3.475201 -0.119782 2.060387 0.447122 -0.151577 3.380071 0.793045 -0.422183 15.705223 3.516235 -0.714008 17.551898 -4.617411 0.268157 -7.128193 -4.779556 9.256480 1.145563 -2.338283 -8.480764 -9.804097 -1.494573 52.413734 -74.995106 -47.691481 -2.024238 -6.231260 -39.615092 -14.838470 -0.605544 -6.450440 14.840238 -6.446345 -0.534079 -90.790070 -72.974020 87.978312 9.459896 -1.868000 31.960177 0.243860 -66.322027 9.021581 -143.264898 63.846899 -140.974231 -7.064658 -26.087338 7.155784 0.152918 -0.855524 0.042795 6.149478 -54.640499 -2.298918 173.519272 61.571347 173.966324 -1.173541 -38.843305 2.813478 0.142695 0.368205 0.062481
-66.645025 43.737916 17.488380 174.570104 -25.325232 -0.219147 -0.269244 18.060332 3.464025 -0.109622 2.052363 0.462780 -0.156409 3.384714 0.792347 -0.422161 15.709716 3.519925 -0.734703 17.552164 -4.633968 0.305303 -7.163845 -4.743962 9.269652 1.140587 -2.345218 -8.508847 -9.790989 -1.508015 52.397659 -75.024470 -47.663076 -2.038327 -6.226666 -39.613783 -14.853636 -0.606439 -6.469000 14.908969 -6.449485 -0.506889 -91.011563 -73.124176 88.168209 9.383633 -1.826010 31.872496 0.242557 -66.306008 9.005969 -143.288142 63.856035 -141.013065 -7.054263 -26.063608 7.143497 0.145225 -0.868955 0.035987 6.182581 -54.614327 -2.327878 173.526656 61.582783 173.975196 -1.175506 -38.830543 2.808560 0.141677 0.368901 0.064391
-66.641473 43.739003 17.498694 174.583308 -25.351336 -0.192264 -0.277719 18.069683 3.460897 -0.098706 2.040070 0.491589 -0.173335 3.401313 0.765617 -0.432043 15.717050 3.506841 -0.706109 17.538904 -4.605851 0.312759 -7.176385 -4.731179 9.319801 1.120356 -2.310955 -8.539588 -9.776285 -1.536844 52.386632 -75.034751 -47.653439 -2.033959 -6.219673 -39.618278 -14.830260 -0.606855 -6.450123 14.954888 -6.441541 -0.508030 -91.143744 -73.203016 88.244026 9.371031 -1.817377 31.818201 0.265846 -66.288217 8.959981 -143.297741 63.858017 -141.031120 -7.054942 -26.051684 7.143425 0.144865 -0.863752 0.041385 6.206733 -54.589605 -2.363006 173.516682 61.600266 173.967260 -1.193378 -38.814478 2.809242 0.141753 0.374366 0.066251
-66.642738 43.740727 17.508117 174.607471 -25.381313 -0.140053 -0.308761 18.082437 3.426162 -0.103469 2.044304 0.490465 -0.174627 3.403857 0.765879 -0.438971 15.722774 3.494077 -0.685216 17.532099 -4.579330 0.346860 -7.187779 -4.672769 9.332872 1.111815 -2.298022 -8.523361 -9.775632 -1.546467 52.351642 -75.039269 -47.627016 -2.014786 -6.208676 -39.637728 -14.777076 -0.610588 -6.408492 14.958486 -6.419594 -0.539833 -91.238358 -73.251528 88.295062 9.392257 -1.831884 31.770217 0.344091 -66.266581 8.843312 -143.312235 63.860386 -141.056653 -7.077402 -26.042199 7.146324 0.156902 -0.865442 0.042564 6.254633 -54.556785 -2.439761 173.490440 61.626434 173.931293 -1.227800 -38.784085 2.821185 0.141572 0.374262 0.068143
